<svg viewBox="0 0 220 33"><g id="naser"><path d="M0 9.368c1.08-.264 2.148-.468 3.204-.612 1.08-.144 2.088-.216 3.024-.216 2.232 0 3.912.576 5.04 1.728 1.152 1.152 1.728 3 1.728 5.544v9.792h-2.952v-9.252c0-1.08-.096-1.956-.288-2.628-.192-.672-.468-1.188-.828-1.548-.336-.384-.756-.648-1.26-.792-.48-.144-1.008-.216-1.584-.216-.48 0-.996.036-1.548.108-.528.048-1.044.12-1.548.216v14.112H0V9.368"/><path d="M22.624 23.48c.744 0 1.404-.024 1.98-.072.6-.048 1.092-.108 1.476-.18V18.26c-.384-.12-.852-.216-1.404-.288-.528-.072-1.092-.108-1.692-.108-.552 0-1.092.048-1.62.144-.528.072-.996.216-1.404.432-.408.216-.744.504-1.008.864-.264.336-.396.768-.396 1.296 0 1.08.36 1.836 1.08 2.268.744.408 1.74.612 2.988.612m-.288-14.976c1.248 0 2.292.156 3.132.468.864.312 1.56.744 2.088 1.296s.9 1.224 1.116 2.016c.216.792.324 1.656.324 2.592v10.44c-.696.12-1.62.264-2.772.432-1.128.168-2.292.252-3.492.252-.912 0-1.8-.084-2.664-.252-.864-.144-1.632-.408-2.304-.792-.672-.408-1.212-.96-1.62-1.656s-.612-1.584-.612-2.664c0-.96.204-1.764.612-2.412.432-.672.972-1.212 1.62-1.62.672-.408 1.428-.696 2.268-.864.864-.192 1.728-.288 2.592-.288 1.176 0 2.328.132 3.456.396v-.828c0-.504-.06-.984-.18-1.44-.096-.48-.3-.912-.612-1.296-.288-.384-.696-.684-1.224-.9-.504-.24-1.164-.36-1.98-.36-1.032 0-1.932.072-2.7.216-.768.144-1.356.288-1.764.432l-.36-2.448c.408-.192 1.08-.36 2.016-.504.96-.144 1.98-.216 3.06-.216"/><path d="M42.08 21.428c0-.6-.252-1.092-.756-1.476-.48-.384-1.092-.72-1.836-1.008-.72-.288-1.512-.564-2.376-.828-.864-.288-1.668-.636-2.412-1.044-.72-.408-1.332-.912-1.836-1.512-.48-.6-.72-1.38-.72-2.34 0-1.344.54-2.46 1.62-3.348 1.104-.912 2.82-1.368 5.148-1.368.912 0 1.848.072 2.808.216.984.12 1.824.288 2.52.504l-.54 2.664c-.192-.096-.456-.192-.792-.288-.336-.12-.72-.216-1.152-.288-.432-.096-.9-.168-1.404-.216-.48-.048-.948-.072-1.404-.072-2.592 0-3.888.708-3.888 2.124 0 .504.24.936.72 1.296.504.336 1.128.648 1.872.936.744.288 1.548.588 2.412.9.864.288 1.668.648 2.412 1.08.744.432 1.356.96 1.836 1.584.504.6.756 1.368.756 2.304 0 1.512-.588 2.688-1.764 3.528-1.176.816-3.036 1.224-5.58 1.224-1.152 0-2.208-.096-3.168-.288s-1.872-.48-2.736-.864l.576-2.7c.84.384 1.716.708 2.628.972.936.24 1.932.36 2.988.36 2.712 0 4.068-.684 4.068-2.052"/><path d="M54.768 8.504c2.256 0 3.996.708 5.22 2.124 1.224 1.392 1.836 3.516 1.836 6.372v1.044H49.872c.12 1.728.684 3.048 1.692 3.96 1.032.888 2.472 1.332 4.32 1.332 1.056 0 1.956-.084 2.7-.252.744-.168 1.308-.348 1.692-.54l.396 2.52c-.36.192-1.008.396-1.944.612-.936.216-1.992.324-3.168.324-1.44 0-2.712-.216-3.816-.648-1.08-.456-1.98-1.068-2.7-1.836s-1.26-1.68-1.62-2.736c-.36-1.08-.54-2.244-.54-3.492 0-1.488.228-2.784.684-3.888s1.056-2.016 1.8-2.736c.744-.72 1.584-1.26 2.52-1.62.936-.36 1.896-.54 2.88-.54m4.032 7.128c0-1.416-.372-2.532-1.116-3.348-.744-.84-1.728-1.26-2.952-1.26-.696 0-1.332.132-1.908.396-.552.264-1.032.612-1.44 1.044-.408.432-.732.924-.972 1.476-.24.552-.396 1.116-.468 1.692H58.8"/><path d="M65.296 25.604V9.8c2.448-.84 4.92-1.26 7.416-1.26.768 0 1.5.036 2.196.108.696.048 1.464.168 2.304.36l-.54 2.628c-.768-.216-1.452-.348-2.052-.396-.576-.072-1.212-.108-1.908-.108-1.464 0-2.952.204-4.464.612v13.86h-2.952"/></g><path class="logo__atsign" d="M102.5 25.944c-.768 0-1.404-.108-1.908-.324-.504-.216-.924-.504-1.26-.864-.528.288-1.164.54-1.908.756-.744.192-1.488.288-2.232.288-1.152 0-2.208-.18-3.168-.54-.936-.36-1.752-.888-2.448-1.584-.696-.72-1.236-1.596-1.62-2.628-.384-1.032-.576-2.232-.576-3.6 0-1.152.18-2.232.54-3.24.36-1.032.888-1.92 1.584-2.664.72-.768 1.584-1.368 2.592-1.8 1.032-.432 2.196-.648 3.492-.648 1.224 0 2.34.096 3.348.288 1.032.192 1.824.384 2.376.576v11.016c0 .768.132 1.308.396 1.62.264.312.612.468 1.044.468.624 0 1.164-.216 1.62-.648.48-.432.864-.996 1.152-1.692.312-.696.54-1.476.684-2.34.144-.888.216-1.788.216-2.7 0-1.512-.264-2.928-.792-4.248-.528-1.344-1.284-2.52-2.268-3.528-.984-1.008-2.184-1.8-3.6-2.376-1.392-.576-2.964-.864-4.716-.864-1.752 0-3.36.3-4.824.9-1.464.576-2.724 1.416-3.78 2.52-1.052 1.08-1.88 2.412-2.48 3.996-.576 1.584-.864 3.384-.864 5.4 0 2.112.312 3.972.936 5.58.624 1.584 1.488 2.916 2.592 3.996 1.128 1.056 2.448 1.848 3.96 2.376 1.536.552 3.216.828 5.04.828 1.416 0 2.58-.084 3.492-.252.936-.168 1.536-.3 1.8-.396l.36 2.664c-.408.144-1.152.3-2.232.468-1.056.168-2.196.252-3.42.252-2.136 0-4.152-.312-6.048-.936-1.9-.6-3.556-1.536-4.972-2.808-1.416-1.248-2.544-2.844-3.384-4.788C80.408 22.5 80 20.172 80 17.484c0-2.592.408-4.86 1.224-6.804s1.908-3.552 3.276-4.824c1.392-1.296 2.988-2.268 4.788-2.916 1.824-.648 3.744-.972 5.76-.972 1.968 0 3.828.324 5.58.972 1.752.624 3.288 1.548 4.608 2.772 1.32 1.2 2.364 2.664 3.132 4.392.768 1.704 1.152 3.636 1.152 5.796 0 1.632-.192 3.072-.576 4.32-.36 1.248-.852 2.304-1.476 3.168-.624.84-1.368 1.476-2.232 1.908-.864.432-1.776.648-2.736.648m-7.2-2.916c.504 0 1.008-.048 1.512-.144.528-.12.996-.288 1.404-.504-.072-.312-.12-.624-.144-.936-.024-.312-.036-.612-.036-.9v-8.46c-.144-.048-.42-.096-.828-.144-.408-.048-.864-.072-1.368-.072-1.704 0-2.976.528-3.816 1.584-.84 1.056-1.26 2.388-1.26 3.996 0 1.704.408 3.06 1.224 4.068.816 1.008 1.92 1.512 3.312 1.512"/><g id="earth"><path d="M120.88 8.504c2.256 0 3.996.708 5.22 2.124 1.224 1.392 1.836 3.516 1.836 6.372v1.044h-11.952c.12 1.728.684 3.048 1.692 3.96 1.032.888 2.472 1.332 4.32 1.332 1.056 0 1.956-.084 2.7-.252.744-.168 1.308-.348 1.692-.54l.396 2.52c-.36.192-1.008.396-1.944.612-.936.216-1.992.324-3.168.324-1.44 0-2.712-.216-3.816-.648-1.08-.456-1.98-1.068-2.7-1.836-.72-.768-1.26-1.68-1.62-2.736-.36-1.08-.54-2.244-.54-3.492 0-1.488.228-2.784.684-3.888.456-1.104 1.056-2.016 1.8-2.736.744-.72 1.584-1.26 2.52-1.62.936-.36 1.896-.54 2.88-.54m4.032 7.128c0-1.416-.372-2.532-1.116-3.348-.744-.84-1.728-1.26-2.952-1.26-.696 0-1.332.132-1.908.396-.552.264-1.032.612-1.44 1.044-.408.432-.732.924-.972 1.476-.24.552-.396 1.116-.468 1.692h8.856"/><path d="M136.74 23.48c.744 0 1.404-.024 1.98-.072.6-.048 1.092-.108 1.476-.18V18.26c-.384-.12-.852-.216-1.404-.288-.528-.072-1.092-.108-1.692-.108-.552 0-1.092.048-1.62.144-.528.072-.996.216-1.404.432-.408.216-.744.504-1.008.864-.264.336-.396.768-.396 1.296 0 1.08.36 1.836 1.08 2.268.744.408 1.74.612 2.988.612m-.288-14.976c1.248 0 2.292.156 3.132.468.864.312 1.56.744 2.088 1.296s.9 1.224 1.116 2.016c.216.792.324 1.656.324 2.592v10.44c-.696.12-1.62.264-2.772.432-1.128.168-2.292.252-3.492.252-.912 0-1.8-.084-2.664-.252-.864-.144-1.632-.408-2.304-.792-.672-.408-1.212-.96-1.62-1.656s-.612-1.584-.612-2.664c0-.96.204-1.764.612-2.412.432-.672.972-1.212 1.62-1.62.672-.408 1.428-.696 2.268-.864.864-.192 1.728-.288 2.592-.288 1.176 0 2.328.132 3.456.396v-.828c0-.504-.06-.984-.18-1.44-.096-.48-.3-.912-.612-1.296-.288-.384-.696-.684-1.224-.9-.504-.24-1.164-.36-1.98-.36-1.032 0-1.932.072-2.7.216-.768.144-1.356.288-1.764.432l-.36-2.448c.408-.192 1.08-.36 2.016-.504.96-.144 1.98-.216 3.06-.216"/><path d="M147.41 25.604V9.8c2.448-.84 4.92-1.26 7.416-1.26.768 0 1.5.036 2.196.108.696.048 1.464.168 2.304.36l-.54 2.628c-.768-.216-1.452-.348-2.052-.396-.576-.072-1.212-.108-1.908-.108-1.464 0-2.952.204-4.464.612v13.86h-2.952"/><path d="M168.31 8.9h7.056v2.484h-7.056v7.776c0 .84.06 1.524.18 2.052s.312.96.576 1.296c.288.312.648.528 1.08.648.432.12.96.18 1.584.18.864 0 1.56-.072 2.088-.216.528-.144 1.032-.336 1.512-.576l.432 2.52c-.336.144-.876.336-1.62.576-.72.24-1.62.36-2.7.36-1.248 0-2.268-.144-3.06-.432-.792-.288-1.416-.72-1.872-1.296-.432-.576-.732-1.284-.9-2.124-.168-.864-.252-1.86-.252-2.988v-7.776h-3.528V8.9h3.528V4.22l2.952-.504V8.9"/><path d="M178.12 25.604V1.16l2.988-.504v8.496c.48-.192 1.02-.336 1.62-.432.6-.12 1.188-.18 1.764-.18 1.272 0 2.328.192 3.168.576.864.36 1.548.876 2.052 1.548s.864 1.476 1.08 2.412c.216.936.324 1.968.324 3.096v9.432h-2.952V16.82c0-2.064-.288-3.516-.864-4.356-.576-.864-1.608-1.296-3.096-1.296-.624 0-1.236.072-1.836.216-.576.12-.996.24-1.26.36v13.86h-2.988"/></g><path class="logo__underline" d="M195 22.8h19.36v2.8H195v-2.8"/></svg>
